# xmcd CD database file
#
# Track frame offsets:
#	150
#	17200
#	41739
#	69271
#	92686
#	113426
#	134876
#	156178
#	178755
#	204332
#	231009
#	254211
#
# Disc length: 3775 seconds
#
# Revision: 0
# Processed by: cddbd v1.4PL0 Copyright (c) Steve Scherf et al.
# Submitted via: CDex 1.50
#
DISCID=a70ebd0c
DTITLE=Passion Music - Meditations Vision
DYEAR=1900
DGENRE=New Age
TTITLE0=Lost in Dreams
TTITLE1=Voyage to Dreamland
TTITLE2=Musical Fantasies
TTITLE3=Let Your Soul Flow
TTITLE4=A Journey Into Yourself
TTITLE5=It's a Beautiful Life
TTITLE6=Dreamboat to Happiness
TTITLE7=A Dreamer in Paradise
TTITLE8=Floating Harmonies
TTITLE9=Music is a Perfect Dream
TTITLE10=Find Healing in Relaxation
TTITLE11=Let Creativity Flow
EXTD=
EXTT0=
EXTT1=
EXTT2=
EXTT3=
EXTT4=
EXTT5=
EXTT6=
EXTT7=
EXTT8=
EXTT9=
EXTT10=
EXTT11=
PLAYORDER=
